<svg xmlns="http://www.w3.org/2000/svg" xmlns:xlink="http://www.w3.org/1999/xlink" viewBox="0 0 1644.09 566.93"><defs><style>.cls-1{fill:none;}.cls-2{isolation:isolate;}.cls-3{clip-path:url(#clip-path);}.cls-4{fill:#4fb7e8;}.cls-5{fill:#ffdf63;}.cls-6{fill:#fbb157;}.cls-7{fill:#a1d291;}.cls-15,.cls-17,.cls-7{mix-blend-mode:screen;}.cls-8{fill:#3a63ac;}.cls-9{fill:#bc5955;}.cls-10{fill:#458fcd;}.cls-11{fill:#75c044;mix-blend-mode:overlay;}.cls-12,.cls-14,.cls-20{mix-blend-mode:multiply;}.cls-13{fill:#f6b1cf;}.cls-14{fill:#3e85b3;}.cls-15{fill:#7a4a9d;}.cls-16{fill:#f58878;}.cls-17{fill:#54c8e8;}.cls-18{fill:#ffc40c;}.cls-19{fill:#f47b38;}.cls-20{fill:#e77865;}.cls-21{fill:url(#linear-gradient);}</style><clipPath id="clip-path"><rect class="cls-1" width="1644.09" height="566.93"/></clipPath><linearGradient id="linear-gradient" x1="1161.99" y1="-310.93" x2="486.67" y2="858.75" gradientUnits="userSpaceOnUse"><stop offset="0" stop-color="#fff" stop-opacity="0"/><stop offset="0.08" stop-color="#fffffd" stop-opacity="0.02"/><stop offset="0.19" stop-color="#fefef9" stop-opacity="0.1"/><stop offset="0.31" stop-color="#fefdf1" stop-opacity="0.21"/><stop offset="0.45" stop-color="#fdfce6" stop-opacity="0.37"/><stop offset="0.6" stop-color="#fcfad8" stop-opacity="0.58"/><stop offset="0.75" stop-color="#faf8c8" stop-opacity="0.83"/><stop offset="0.85" stop-color="#f9f6bc"/></linearGradient></defs><g class="cls-2"><g id="ëÎÓÈ_1" data-name="ëÎÓÈ 1"><g class="cls-3"><rect class="cls-4" x="-28.35" width="1700.79" height="566.93"/><path class="cls-5" d="M-5.88,94.93S-16.57,104.32-22.74,111c-31.88,34.73-78.5,61.37-94.12,109.08-23.08,70.5-31.35,145.49-26.24,219.18,3.76,54.33,19.21,105.08,41.91,154.69,27.92,61,75,84.29,133.25,112.39,81.58,39.35,162.05,34.69,250.31,44.62,99.78,11.22,198.69,9.41,298.8,11.73,232.24,5.38,471.06,19.26,702.53-6.35,184.54-20.42,359.5-94.71,520.2-182.54,49.76-27.2,97.23-60.65,129.2-108,27.76-41.13,64.52-88.69,61.75-140.3C1991.72,267,1978.32,186.11,1924,152c-36.61-23-86.77-1.76-124.6,9.43-64.68,19.15-121.11,56.54-186.1,74.59-50.75,14.09-106.7,7.59-158.36,2.81-87.85-8.13-151.7-59.39-236.09-80.63-45.15-11.36-89.3-13-133.51-25.78-43.11-12.46-70.57-24.41-105.11-49.61-33.3-24.3-69.31-24.94-109.84-16.71-36.16,7.33-66.52,16.36-103.26,20.44-37.09,4.11-69.89,22.24-101.12,42.95-66.42,44-140,61.63-211,16.44-26.85-17.1-44.67-48.7-72.56-63-26.44-13.59-74.72-3-103.45,0-34.92,3.67-71.48,1.6-107.4,5.11-26.49,2.58-53.89,3.51-80.8,6.1C62.16,96.85,62.84,96.17-5.88,94.93Z"/><path class="cls-6" d="M-72.57,103.73C-40.4,130,129.93,85.66,163.29,77.85c41.07-9.61,66.11-1,102,17.88,65.44,34.37,138.41,56.05,214.08,55.64,49.22-.26,79.58-13.6,121.89-31.81,34.42-14.81,75-7.91,108.8,2.1,39.39,11.66,81.68,26.39,123.4,30,46,4,95.83-11.2,140.7-17.24s89.44-12.63,134.86-10.88c60.1,2.31,122,20.2,178.79,37.42,109.79,33.28,259.28,84.49,371.54,33.74,25.39-11.47,46.14-28.35,72.23-39.58,37.36-16.08,77.68-24.05,118.72-27.74,38.18-3.43,82.69-11.68,118.42,5.92,16.76,8.25,29.43,22.53,44.87,32.58,21.94,14.29,53.92,23.61,61.36,51.22,11.87,44.06-46.11,101.69-73.54,132.33-29.41,32.84-64.14,61.32-104.27,80.84-77.26,37.58-174.42,43.61-259.29,52-198.32,19.54-398,27.13-597,36.77-216,10.46-433.38,18.76-649.65,12.74C297.13,529.16,204,521.83,111.93,503c-45.68-9.37-109.28-19.1-148-46.57-25.06-17.79-37.81-48.59-57.09-71.47-18.3-21.73-41.63-42.8-53.45-68.88-9.76-21.55-20.54-56.41-14.12-79.54C-149.29,195.38-72.57,103.73-72.57,103.73Z"/><path class="cls-7" d="M-37,158.75C-17.5,169.92,69.72,186.6,93.29,196.33c37.59,15.52,56.82,16.95,99.72,17,29.51,0,41.62-4.27,66.54-12.75C293.6,189,330.8,189.51,361.49,171.22c13.31-7.94,22.73-19.16,37.44-26.12,25.91-12.25,64.76-13.15,94.14-20.41,32.18-8,53.4-16.69,80.52-31.56,18.51-10.15,42.25-9,63.88-14.9,22.27-6.08,42.58-15,64.49-21.6,27.21-8.18,45.11-6.62,74.36-3.24a165.77,165.77,0,0,1,39.12,5.23c19.07,6.18,25.68,18.23,42.16,25.75,16.91,7.72,35.71,6.84,50.5,16.21a181.53,181.53,0,0,0,14.51,15.85c8.69,5.71,23.42,8.22,34.28,11.24,58.92,16.35,121.55,25.5,182.83,37.13,52.83,10,72.76,22.49,106.72,48.92,33.62,26.16,107,42.23,158.25,42.86l18.42-.55,35.11-3.43,41.22-4.41c41.89-5.24,78.87-12.93,120.16-23,25.72-6.28,50.31-11.45,76.75-17.12,37.31-8,76.56-22.83,113.64-8.36,45,17.58,48.86,62.91,44.65,105.69-3.4,34.64.95,75.9-20.77,104.76-16,21.23-41.67,36.73-65.76,47.48-26.85,12-53.73,19.06-83.18,20.82-29.83,1.79-48.67,4.82-77.15-2.45-15.35-3.91-31-2.24-46.8-1.75q-37,1.13-73.91,2.21l-209.21,6.27L726.57,499.25,212.7,514.65-6.43,521.22S-58,146.72-37,158.75Z"/><path class="cls-8" d="M1834.83,192.81c-25.55,12.65-52.88,32.15-78.88,42-59.52,22.47-116.29,35.32-179.64,35.65-59.64.3-117.93-5.4-177.94-5.22-58.32.18-119.17,15.46-176,26.5-55.7,10.82-118.74-1.36-174.52-9.85-135.74-20.68-268.09-54.89-398-100.18-40.31-14.06-90.28-32.21-132.59-32.55-34.33-.27-65.79,12.51-99.16,19.37-47.61,9.79-98.17,9-146.7,18.16C221.85,196,172.46,207.12,122.24,213c-24.94,2.92-50.12,8.6-75.33,8.17-20-.33-35.08-5.62-52.55,5.66C-44.74,252.07-59.9,290-50.64,334c5,23.65,14,43.16,14.92,68,.41,11.3-2.74,23.39,4.45,32.11,7.72,9.36,39,11.68,49.75,14.47,25.93,6.75,51.74,13.61,77.87,19.62,82.84,19.06,164.21,18.44,248.71,23.17,124.22,6.95,248.17,21,372,32.36,118.93,10.87,239.37,33.65,358.62,37.39,192.5,6,408.43-6.06,585.1-89.16,81.48-38.33,142.54-96.85,174.53-178.71Z"/><path class="cls-9" d="M1884.58,614.42q-.45-88-.91-176c-.21-40.7.94-81.62,1-122.14.09-38.26-24.16-69.71-64.36-60.62l-3,.71c-26.64,6.62-55.73,26.38-79.19,40-21.17,12.3-38.94,28.3-56.55,45.18-30.87,29.59-62.72,38.8-104.55,45a409.3,409.3,0,0,1-59.6,4.91c-84.17.43-168-12.83-252.43-12.39-73.24.38-142.33-16.24-216.47-28.2-84.64-13.65-171.85-29.84-253.85-49.1-32.83-7.71-67.72-5.57-102.48-9.57-84.86-9.77-155.53-34.66-233-70.76-40.25-18.76-77.62-42-117.68-61-31-14.67-62.63-35.91-95.32-46C211.52,103.8,175.34,102.58,139.05,97,111.24,92.78,86.4,88,57.79,88.12,31.67,88.27,7,92.4-18.92,91.24-33.44,90.58-46,91.92-58,95.77l2.74,528.71Z"/><path class="cls-10" d="M1723.43,375.54c-36.32,11.11-67,35.89-105.82,43.09-35,6.49-79.21-1.46-114.65-5.65-37-4.39-70.51-21.84-103.06-37.8-38.05-18.66-80-32.05-119.37-47.79-68.47-27.34-139-39.35-209.65-54.08-37.76-7.87-76-16.4-111.07-32.68-17.39-8.06-31-18-45.1-30-13.62-11.57-29.39-17.84-44.49-27.18-9.48-5.87-19.17-14.38-29.46-18.52-22-8.86-39.46,3.08-60.46,4.91-24.36,2.12-43,1.45-66.65,9.17-52.15,17-98.45,46.95-150.11,64.67-27.84,9.56-58.78,6.75-86.74,15-31.31,9.21-56.89,28-86.62,43.48C357.92,318.92,322,325,287,333.42c-38.54,9.31-78.4,22.72-117.85,9.93-32.8-10.63-63.7-36.33-92.35-54.57C61,278.77,44.48,269.67,30,257.85s-19.45-24-38.46-28.91C-19.8,226-27.31,226.64-37,232.09c-8.75,4.93-16.56,14.69-24,21.29-15.17,13.48-36.3,24.57-46.8,42.06-7.59,12.65-9.2,29.46-15.16,43-6.74,15.33-15.63,30-21.36,45.7-11.1,30.52-14.59,61,3.75,87.93,12,17.57,18.15,36.79,29.29,54.64,11.34,18.16,26.4,31.39,42.19,45.74,32.21,29.29,64.68,53,106,67.25,34.11,11.71,67.66,23.87,102.24,34.43,58.84,18,118.86,18,180,19,66.95,1.16,129.58-3.59,195.66-13.36s133.26-6.88,199.81-7.06c116.3-.31,231.64,2.81,347.67,10.88,39.26,2.72,78.33-6.88,117.81-7.16,53.35-.38,104.46-15.59,158-12.86,57.91,3,115.65,4,173.36-3.77,36.32-4.9,73.45-3.12,108.74-11.83,29.7-7.34,61.77-3.94,92.06-10,25.57-5.11,54.88-16.25,72.26-36.81,41.33-48.92,39.34-145.12,12.62-201-12.89-27-40.38-33.57-68.47-26.17Q1726.06,374.74,1723.43,375.54Z"/><path class="cls-11" d="M-376.4,406.05a128.38,128.38,0,0,1,6.52-15.32c10.26-19.83,27.08-25.73,47.09-31.47,30.07-8.64,56.88-25.49,87.51-32.76,50.16-11.91,99.2-16.31,146.44-38.7,35.21-16.68,74.66-22.45,110.58-37.34,37.13-15.39,69.54-40.57,107.15-54.23,53.65-19.49,92.66-19.7,140.67,8.85,22.07,13.12,53.24,27.52,78.3,31.42A471,471,0,0,1,418.61,253c37.35,11.72,78.74,26.21,118.54,21.06,38.25-4.94,73.93-4.86,110.71,9.85,21.71,8.7,43.92,14.25,64.52,25.62,19.37,10.69,36.09,26.74,57.74,33.25,48,14.44,104.2,5.71,153.73,13.17,97.38,14.67,229.89,9.2,298.08,94.6a204.83,204.83,0,0,1,43.79,112c.6,8.47,5.91,25.53,0,32.51-7,8.2-41.79,11.32-51.64,12.17-51,4.38-105.78-7.09-156.33-12.4-19.6-2.06-40.62.68-60.31,1.29l-147.09,4.58L457.87,612.87l-428,13.32c-62.6,1.95-130.61-3.42-192.44,6.29C-185,636-203,644.65-226.77,644.87c-25.73.23-53.08-2.17-76.5-13.66-24.68-12.12-53.57-35.59-73.45-54.67-21.14-20.28-25.58-60.77-26.79-88.88-.86-20,5.72-31.12,14.45-48.47C-383.8,428.74-380.44,417.14-376.4,406.05Z"/><g class="cls-12"><path class="cls-13" d="M1525.1,130.89c34.88-26.37,66.77-56.34,112.61-63.23,57.26-8.6,168.22-12.5,168.22-12.5,6.23-.22,14,4,17.22,9.29,0,0,12.66,20.86,21.43,34.35,15.64,24.06,32.07,49.12,41,76.55,6.57,20.21,7.29,41.15,14.4,61.31,19.84,56.27,38.94,108.19,37.3,168.84-2,75.28-36.84,148.36-106.6,185.22-90.35,47.75-206.71,45.67-306.49,35.94-103.44-10.09-213.91-16.39-317.72-7.19-64.26,5.69-129.81,4.08-194.21,2-61.56-2-120.84,7.18-181.94,12.35-64.06,5.41-128.37.64-192.38,6.06-75.06,6.35-149.8,11-225.32,14.43C291,659.74,169.82,672.62,47.87,667.34c-42.29-1.83-93.64,6.35-127.77-24.28-25.41-22.81-25.21-54-29.46-85.27-8.9-65.5-10-138.17,3.08-203.43,4.32-21.52,9.76-53.86,32.76-63.66,17-7.25,47-7.38,64.21-3.81,56.69,11.77,107.14,42.39,161.51,59.87,39.69,12.77,86.87,26.76,128.92,26.49,37.73-.23,74-10.32,110-20.45,16.54-4.65,38.84-7.42,54.09-16.35l6.57-3.86c5.38-3.15,14-8.59,19.17-12.08l.29-.2c5.16-3.49,13.49-9.39,18.5-13.1l6.71-5a209.48,209.48,0,0,1,19-12.29l2.08-1.17c5.44-3,14.41-7.89,19.94-10.78l.42-.22a142.08,142.08,0,0,1,20.92-8.49l18.68-5.57c6-1.79,15.72-4.82,21.65-6.74l40.37-13.1c5.94-1.92,15-4.62,20.21-6s14.35-3.82,20.38-5.43l2.91-.79c6-1.61,13.22-3.83,16-4.93a61.35,61.35,0,0,1,10.34-2.9c2.92-.5,9.3-3.13,14.19-5.85s13.51-7.08,19.18-9.7l9.11-4.2a61,61,0,0,0,17.62-13.4L770,190c4-4.76,10.51-10.24,14.4-12.19s7.94-6.23,9-9.51,6.46-8.27,12-11.08l32.69-16.5a76.2,76.2,0,0,1,21.39-6.4l32.88-3.77c6.2-.71,14.3-.88,18-.38s11.74,1.95,17.85,3.23l7.65,1.6,19.26,4.06A182,182,0,0,1,974,144.59l20.32,7.19c5.87,2.09,15.41,5.7,21.2,8l22.13,8.94c5.79,2.33,15.26,5.93,21.06,8a73.11,73.11,0,0,0,21.88,3.51l5.11-.1a85.24,85.24,0,0,1,22.18,3.05l4.59,1.4a203,203,0,0,1,21.16,8L1162.66,206c18.9,7.55,36.44,18,55.11,25.94,34,14.44,56.5-5.9,87.73-18.85,18.3-7.59,38.37-10.87,57.83-15.58,36.13-8.75,75.12-20.47,109.49-34.82C1492,154.62,1508.88,143.15,1525.1,130.89Z"/></g><path class="cls-14" d="M1903.67,733.09l-137.39,4.12-432.46,13-532.62,16L371.54,779c-36.74,1.1-73.57-.73-110.28,1.67C230,782.73,198.37,794.22,167,792c-44.95-3.12-95-42.48-134.36-62-75.63-37.51-172.54-152.91-101-236,28-32.46,76.33-10.61,109.61.51,65.37,21.84,123.57,34.16,194.17,24,32.49-4.68,65.43-11.78,95-26.33,12.57-6.19,23.76-16.62,37-19.48,15.08-3.25,34.38,1.65,49.84,1.64,31.17,0,62.71-2.26,92.43-12.19,34.71-11.6,72.62-11.11,103.91-29.42,13.57-8,23.18-19.17,38.18-26.14,26.41-12.27,66-13.19,96-20.47,32.8-8,54.43-16.72,82.08-31.61,18.88-10.16,43.07-9,65.12-14.93,22.7-6.09,43.41-15,65.75-21.64,27.73-8.2,46-6.64,75.78-3.28a172,172,0,0,1,39.87,5.2c19.44,6.17,26.16,18.22,43,25.73,17.23,7.71,36.39,6.82,51.46,16.18a180.58,180.58,0,0,0,14.78,15.84c8.86,5.71,23.86,8.21,34.92,11.22,42.23,11.48,85.37,19.19,128.44,26.75,36.43,6.39,79.1,8.67,111.93,26.93,23.48,13.05,39.81,34.33,64.61,46,37.51,17.6,74.82,18.1,115.41,15.79,36.32-2.07,76.1.2,111.68-7C1785.79,490.55,1842.35,451,1875,466c33.88,15.52,24,112.93,24.9,142.61Q1901.78,670.84,1903.67,733.09Z"/><path class="cls-15" d="M-118.57,327.28l56.47,8.37L-18,346.52l80.1,33.05,28.56,6.61,41.72,11.64,69.8,21.82,53-1.66,10.73-5.86,24.68-11.42L331,383.1l46.44-20.19,31.25-9.52,33.64-1.29,25-8.71L504,332.16l14.34-8.62s12.12-.8,49.45-17.15,92.76-13.46,92.76-13.46l46,.72,29.2.77c25.23,5.39,28.37,21.22,46.64,39.48,23.46,23.45,58.09,27.52,88.92,34.61,45.09,10.37,92.34,7.72,138.09,12.17,42.24,4.1,82.44,24.8,119.37,44.87,18.06,9.82,35.53,21,53.49,31.2,28.54,16.2,63.56,13.54,94.77,19.66l15.27,4.32c17.85,5.06,37.32,2.76,55.59,8.11,38.12,11.16,77.25-10.29,115-16.08,38.89-6,94.86-3.76,133.53-14,63.27-16.82,100.78-59.73,165.26-73.4,26.79-5.68,61.14-9.29,82.37,12s27.5,69.58,27.29,98.47c-.76,107.48-103.1,168.48-200.23,172.9-75.22,3.42-152.68-20.3-227-1.25-44,11.27-85.11,14.2-130.37,15.62l-271,8.45-631.51,19.7L-42.34,725.41-94.09,727l-11.73-400.14"/><path class="cls-16" d="M1941.27,499.61c-21.41,14.65-58,12.19-82.8,14.74-29.87,3.08-58.32,6.51-88.43,6.6-24.75.07-49.9,1-74.8,2.38-37.94,2-69.19-.35-105.48-9.74-52.37-13.55-104.16-27.48-155.84-44.13-22.4-7.21-47.42-20.48-69.93-24.22-16.71-2.77-34.9,2.68-51.7.48-44.75-5.85-79.92-28.67-120.18-42.94-35.28-12.5-78.14-14.46-116.34-11.26-45.14,3.78-91.76,16.93-137.93,23.83-70.94,10.59-126.59,6.37-196.13-7.73-33.16-6.72-68.51-9.66-101.34-17.27-23.85-5.53-46.91-15.19-70.92-18.54-20.15-2.81-36-2.86-55.83.34-22.64,3.65-31,14.28-51.13,23.16-35.05,15.49-86.39,14.49-124.87,10-66.37-7.81-126.78-31.95-190.22-49.83C103.11,343,57.48,335.22,12.47,324.66c-49-11.49-107.12-32.62-159.09-23-25.29,4.7-24.68,15.93-24.47,39,.29,32-3.61,62.68-5.7,94.56-3.69,56.1-7.25,87.84,31.56,132.31,49.64,56.86,87,124.75,141.54,177.44C148.1,891.8,395.5,873.45,588.24,855.16c158.35-15,318-24.46,475.12-49.84,108.14-17.47,215.17-40.94,322.67-61.57,69.89-13.41,140.72-21.3,210.43-35.77,81.51-16.92,160.71-33.3,243.23-44.82,28.76-4,114.36-32.18,116.67-72.07C1957.6,569.62,1941.27,499.61,1941.27,499.61Z"/><path class="cls-17" d="M-30.11,353.21-17.69,747.9l11-.32L382.1,736.27l644.1-18.73,288.59-8.39c44.06-1.28,89.57.26,133.06-7,62.19-10.36,121.15,6.82,184,6.06,32.14-.39,64.07-16.66,95.54-23.28,38.59-8.13,71.42-18.21,107.38-33.63,48.16-20.63,69.9-45,71.21-95.65,1-38.72,15.27-91-3.34-127.28-17.13-33.37-55.79-23.09-86.76-18.2-83,13.12-165.3,44.46-243.63,71.59-44.48,15.41-156.42,30.16-247.06,22.38-69.57-6-154.3-52.35-208.93-69.12s-200.46-36.58-236.11-47.86c-31.08-9.84-51.6-43.67-76-54.4-23.9-10.52-68.35-11.66-92.06-10.17-21.52,1.36-49.75,8.08-69.56,14.72C626.85,342.62,609,351.81,593,354.59c-66.82,11.65-101.63,44.2-124.47,51.09-42.85,12.92-96.23,6.85-140.12,14.67-61.26,10.91-126.35,19.28-187.29,1.46-23.57-6.9-40.8-24.39-62.23-35.46C39.7,366.09-30.11,353.21-30.11,353.21Z"/><path class="cls-18" d="M1895.07,600.19c-.19-35.35,14.2-70.12-39-81.93-14.28-3.16-33.36,8.61-46.12,12.76-31.67,10.33-66.1,11.82-99.67,15.19-45.29,4.54-93.24,17.28-138.47,13.86-46.68-3.53-93.31-5.75-139.46-13.72-68.7-11.87-137.68-23.54-207.43-27.69-44.66-2.67-90.72-3.88-134.69-11.42-38.12-6.54-70-17.58-105.77-30.52-20.18-7.3-36.29-18-54.28-28.43-33.27-19.21-68.91-13.61-107.81-11.47-52.75,2.89-103.79,13.18-156.53,15.42-33.55,1.42-67.63,9.25-98.94,19.14C520.49,486,474,499.84,427.42,514.62c-47.23,15-93.64,30.82-143.71,36.34-38.28,4.22-69.19,2.76-107.41-2.35-63-8.41-120.66-44.79-185.15-44.54-26.66.11-53.1,15.63-75.48,26.58-15.32,7.5-40.93,17.87-50.5,30.65-12.25,16.35-1.09,37.7,10.49,52,8.06,10,20.43,26.93,31.09,34.84,16.35,12.14,51.26,15.51,71.6,20.65C96.2,698.66,220.59,734,344.87,732.42c127.54-1.6,253-15.09,379.68-25.59,105.6-8.75,210.19-15.46,314.79-30.59,69.4-10,139-8.61,209.33-7.08,89.36,2,179.25-1.55,268.12,7.74,31.57,3.3,63.94,9.13,93.5,19.12,28.69,9.7,52,18.26,83.49,19,37.49.82,73.71-3.23,110.76,1.68,25.25,3.34,92.87,5.42,97.63-24.61,1.82-11.47-6.09-26.24-6.86-38C1894.13,636.19,1895.16,618.08,1895.07,600.19Z"/><path class="cls-19" d="M-286.81,451.66l13.46,440.79,1633.8-49-7.36-240.91-63.25,8.78c-12.81,1.73-25.52,4-38.35,5.7-22.35,2.89-42.67,11.85-64.49,15.11-56.89,8.51-134.06-26.16-178.24-59-12.14-9-23.39-15.65-37.49-21.16-18.78-7.34-39.87-15.73-60.06-14.76-39.9,1.92-77.19-2.13-116.79-10.41-81.16-16.95-157.93-46.65-233-80.13C537,435.76,508.72,427,482.26,423.1c-39.22-5.73-74.87,16.32-111.71,26.36-21.62,5.9-45.36,4.75-63.88,14.9-27.12,14.87-48.34,23.61-80.51,31.56-29.39,7.27-68.23,8.16-94.14,20.42-14.71,7-24.14,18.18-37.45,26.11-30.69,18.3-67.89,17.79-101.93,29.37-24.92,8.47-37,12.78-66.54,12.75-42.91-.05-62.13-1.48-99.72-17-23.57-9.74-55.45-4.08-75-15.25-21-12-9.24-26.16-16-44.69C-271,490.24-286.81,451.66-286.81,451.66Z"/><path class="cls-20" d="M-550.11,600c40.17,15.54,60.71,17,106.56,17,31.53,0,44.47-4.26,71.09-12.73,36.37-11.56,76.12-11,108.9-29.32,14.22-7.93,24.28-19.15,40-26.1,27.68-12.25,69.18-13.13,100.58-20.38,34.38-7.94,57-16.67,86-31.53,19.78-10.15,45.14-9,68.24-14.88,23.8-6.06,45.5-15,68.91-21.57,29.07-8.17,48.2-6.6,79.45-3.21a188.53,188.53,0,0,1,41.79,5.24c20.39,6.19,27.45,18.24,45.06,25.77,18.07,7.73,38.16,6.86,54,16.23A187.84,187.84,0,0,0,336,520.38c9.29,5.71,25,8.23,36.63,11.25,63,16.37,129.89,25.55,195.37,37.2,56.45,10,77.74,22.52,114,49,35.94,26.18,114.29,42.28,169.1,42.93l19.69-.54,37.5-3.42,44-4.4,32.72-3.81,28.52-4.23,67.58-8.77,7.94,240.93L-656.54,924.82S-575.3,590.22-550.11,600Z"/></g><rect class="cls-21" x="-10" y="-24.18" width="1668.66" height="596.18"/></g></g></svg>