<svg width="826" height="826" viewBox="0 0 826 826" fill="none" xmlns="http://www.w3.org/2000/svg">
<circle cx="413" cy="275.333" r="86.0417" stroke="#0052CC" stroke-width="34.4167" stroke-linecap="round"/>
<path d="M473.847 223.708C480.654 211.918 490.804 202.411 503.014 196.39C515.224 190.368 528.945 188.103 542.443 189.88C555.94 191.657 568.608 197.397 578.843 206.373C589.079 215.349 596.423 227.159 599.946 240.309C603.47 253.459 603.015 267.359 598.639 280.25C594.263 293.142 586.162 304.446 575.361 312.734C564.561 321.021 551.545 325.92 537.96 326.81C524.376 327.701 510.832 324.543 499.042 317.736" stroke="#0052CC" stroke-width="34.4167"/>
<path d="M352.153 223.708C345.346 211.918 335.196 202.411 322.986 196.39C310.776 190.368 297.054 188.103 283.557 189.88C270.059 191.657 257.392 197.397 247.157 206.373C236.921 215.349 229.577 227.159 226.054 240.309C222.53 253.459 222.985 267.359 227.361 280.25C231.737 293.142 239.838 304.446 250.638 312.734C261.439 321.021 274.455 325.92 288.04 326.81C301.624 327.701 315.168 324.543 326.958 317.736" stroke="#0052CC" stroke-width="34.4167"/>
<path d="M413 430.208C553.428 430.208 589.678 543.857 599.035 602.531C602.029 621.302 586.883 636.708 567.875 636.708H258.125C239.117 636.708 223.971 621.302 226.964 602.531C236.322 543.857 272.572 430.208 413 430.208Z" stroke="#0052CC" stroke-width="34.4167" stroke-linecap="round"/>
<path d="M664.123 530.576L680.815 526.396L680.815 526.396L664.123 530.576ZM450.415 433.165L437.707 421.562L416.354 444.948L447.594 450.14L450.415 433.165ZM591.323 567.875L574.793 572.658L578.388 585.084H591.323V567.875ZM533.458 413C568.829 413 593.671 430.3 611.87 454.539C630.434 479.263 641.335 510.419 647.43 534.756L680.815 526.396C674.237 500.126 661.931 463.891 639.393 433.874C616.491 403.373 582.336 378.584 533.458 378.584V413ZM463.123 444.768C480.344 425.907 502.851 413 533.458 413V378.584C491.566 378.584 460.274 396.845 437.707 421.562L463.123 444.768ZM447.594 450.14C526.769 463.298 560.267 522.449 574.793 572.658L607.854 563.093C591.64 507.048 551.321 432.489 453.236 416.189L447.594 450.14ZM633.094 550.667H591.323V585.084H633.094V550.667ZM647.43 534.756C649.281 542.151 643.85 550.667 633.094 550.667V585.084C663.062 585.084 688.856 558.505 680.815 526.396L647.43 534.756Z" fill="#0052CC"/>
<path d="M375.586 433.165L378.407 450.14L409.647 444.948L388.294 421.562L375.586 433.165ZM161.878 530.576L145.185 526.396L145.185 526.396L161.878 530.576ZM234.677 567.875V585.084H247.613L251.208 572.658L234.677 567.875ZM292.543 413C323.15 413 345.657 425.907 362.878 444.768L388.294 421.562C365.727 396.845 334.436 378.584 292.543 378.584V413ZM178.571 534.756C184.666 510.419 195.567 479.263 214.131 454.539C232.33 430.3 257.172 413 292.543 413V378.584C243.665 378.584 209.51 403.373 186.609 433.874C164.07 463.891 151.764 500.126 145.185 526.396L178.571 534.756ZM192.906 550.667C182.151 550.667 176.719 542.151 178.571 534.756L145.185 526.396C137.144 558.504 162.938 585.084 192.906 585.084V550.667ZM234.677 550.667H192.906V585.084H234.677V550.667ZM251.208 572.658C265.734 522.449 299.231 463.298 378.407 450.14L372.765 416.189C274.68 432.489 234.361 507.048 218.147 563.093L251.208 572.658Z" fill="#0052CC"/>
</svg>
