<svg width="716" height="716" viewBox="0 0 716 716" fill="none" xmlns="http://www.w3.org/2000/svg">
<path d="M358 193.917V551.917" stroke="#0052CC" stroke-width="29.8333" stroke-linecap="round"/>
<path d="M611.583 193.917V551.917" stroke="#0052CC" stroke-width="29.8333" stroke-linecap="round"/>
<path d="M104.417 193.917V551.917" stroke="#0052CC" stroke-width="29.8333" stroke-linecap="round"/>
<path d="M611.583 551.917C611.583 551.917 581.75 492.25 477.333 492.25C372.917 492.25 358 551.917 358 551.917" stroke="#0052CC" stroke-width="29.8333" stroke-linecap="round"/>
<path d="M104.417 551.917C104.417 551.917 134.25 492.25 238.667 492.25C343.083 492.25 358 551.917 358 551.917" stroke="#0052CC" stroke-width="29.8333" stroke-linecap="round"/>
<path d="M611.583 193.917C611.583 193.917 581.75 134.25 477.333 134.25C372.917 134.25 358 193.917 358 193.917" stroke="#0052CC" stroke-width="29.8333" stroke-linecap="round"/>
<path d="M104.417 193.917C104.417 193.917 134.25 134.25 238.667 134.25C343.083 134.25 358 193.917 358 193.917" stroke="#0052CC" stroke-width="29.8333" stroke-linecap="round"/>
</svg>
