<svg width="723" height="723" viewBox="0 0 723 723" fill="none" xmlns="http://www.w3.org/2000/svg">
<path d="M412.733 331.921L549.459 252.982C560.921 246.365 575.577 250.292 582.194 261.754L585.108 266.799C603.952 299.439 604.653 339.484 586.962 372.763C565.41 413.306 516.172 430.276 474.217 411.62L415.556 385.536C393.059 375.533 391.411 344.231 412.733 331.921Z" stroke="#0052CC" stroke-width="30.125"/>
<path d="M361.5 420.659V578.536C361.5 591.771 350.771 602.5 337.536 602.5H331.71C294.021 602.5 258.99 583.084 239.015 551.124C214.68 512.188 224.603 461.062 261.737 434.055L313.656 396.295C333.568 381.814 361.5 396.038 361.5 420.659Z" stroke="#0052CC" stroke-width="30.125"/>
<path d="M412.735 391.078L549.46 470.016C560.922 476.634 564.85 491.29 558.232 502.752L555.319 507.798C536.474 540.437 502.145 561.067 464.479 562.385C418.592 563.992 379.276 529.836 374.455 484.174L367.714 420.33C365.129 395.845 391.413 378.767 412.735 391.078Z" stroke="#0052CC" stroke-width="30.125"/>
<path d="M310.267 391.079L173.541 470.018C162.079 476.635 147.423 472.708 140.806 461.246L137.892 456.201C119.048 423.561 118.347 383.516 136.038 350.237C157.59 309.694 206.828 292.724 248.783 311.38L307.444 337.464C329.941 347.467 331.589 378.769 310.267 391.079Z" stroke="#0052CC" stroke-width="30.125"/>
<path d="M310.259 331.917L173.534 252.978C162.072 246.361 158.144 231.705 164.762 220.243L167.675 215.197C186.52 182.558 220.849 161.928 258.515 160.609C304.402 159.002 343.718 193.159 348.539 238.821L355.28 302.665C357.865 327.149 331.581 344.227 310.259 331.917Z" stroke="#0052CC" stroke-width="30.125"/>
<path d="M361.5 302.341V144.464C361.5 131.229 372.229 120.5 385.464 120.5H391.29C428.979 120.5 464.01 139.916 483.985 171.876C508.32 210.812 498.397 261.938 461.263 288.945L409.344 326.705C389.432 341.186 361.5 326.962 361.5 302.341Z" stroke="#0052CC" stroke-width="30.125"/>
</svg>
