<svg width="622" height="622" viewBox="0 0 622 622" fill="none" xmlns="http://www.w3.org/2000/svg">
<path d="M505.375 155.5L467.364 184.008C458.392 190.737 447.479 194.375 436.264 194.375H349.227C333.741 194.375 319.583 203.125 312.658 216.976V216.976C304.111 234.069 308.546 254.803 323.337 266.904L375.169 309.313C415.96 342.687 437.07 394.453 431.25 446.835L430.733 451.485C428.67 470.049 424.109 488.249 417.172 505.591L401.708 544.25" stroke="#0052CC" stroke-width="25.9167"/>
<path d="M64.7917 272.125L148.712 258.138C183.794 252.291 214.209 282.706 208.362 317.788L204.876 338.704C198.634 376.154 217.547 413.294 251.505 430.273V430.273C278.696 443.869 292.796 474.525 285.423 504.018L272.125 557.208" stroke="#0052CC" stroke-width="25.9167"/>
<circle cx="311" cy="311" r="246.208" stroke="#0052CC" stroke-width="25.9167"/>
</svg>
