<svg width="984" height="140" viewBox="0 0 984 140" fill="none" xmlns="http://www.w3.org/2000/svg">
<path d="M85.4498 2.43288V97.6018C85.4498 110.809 81.6301 121.103 73.9907 128.483C66.3513 135.734 56.1222 139.36 43.3036 139.36C30.3554 139.36 19.8674 135.605 11.8396 128.095C3.94119 120.585 -0.00799933 110.097 -0.00799933 96.6307H27.1831C27.3126 102.457 28.6722 106.989 31.2618 110.226C33.9809 113.463 37.8653 115.082 42.9151 115.082C47.8354 115.082 51.5904 113.528 54.18 110.42C56.7696 107.313 58.0644 103.04 58.0644 97.6018V2.43288H85.4498ZM143.971 2.43288V86.3369C143.971 95.5301 146.367 102.587 151.158 107.507C155.948 112.298 162.681 114.693 171.357 114.693C180.161 114.693 186.959 112.298 191.75 107.507C196.541 102.587 198.936 95.5301 198.936 86.3369V2.43288H226.322V86.1427C226.322 97.6665 223.797 107.442 218.747 115.47C213.827 123.369 207.158 129.325 198.742 133.339C190.455 137.353 181.197 139.36 170.968 139.36C160.869 139.36 151.676 137.353 143.389 133.339C135.231 129.325 128.757 123.369 123.966 115.47C119.176 107.442 116.78 97.6665 116.78 86.1427V2.43288H143.971ZM279.784 116.441H324.455V138H252.593V2.43288H279.784V116.441ZM368.929 2.43288V138H341.738V2.43288H368.929ZM478.921 112.168H424.927L415.993 138H387.443L436.192 2.23865H467.851L516.6 138H487.856L478.921 112.168ZM471.541 90.4156L451.924 33.7027L432.308 90.4156H471.541Z" fill="#20ADE5"/>
<path d="M629.214 43.2195C626.107 37.5224 621.834 33.1847 616.396 30.2067C610.957 27.2286 604.613 25.7395 597.362 25.7395C589.334 25.7395 582.213 27.5523 575.997 31.1778C569.782 34.8033 564.927 39.9825 561.431 46.7155C557.935 53.4486 556.187 61.2175 556.187 70.0222C556.187 79.0859 557.935 86.9843 561.431 93.7173C565.056 100.45 570.041 105.63 576.386 109.255C582.731 112.881 590.111 114.693 598.527 114.693C608.886 114.693 617.367 111.974 623.97 106.536C630.574 100.968 634.912 93.2641 636.983 83.4236H590.37V62.6418H663.786V86.3369C661.973 95.789 658.089 104.529 652.133 112.557C646.176 120.585 638.472 127.059 629.02 131.979C619.697 136.77 609.209 139.165 597.556 139.165C584.479 139.165 572.631 136.252 562.013 130.425C551.525 124.469 543.239 116.247 537.153 105.759C531.197 95.2711 528.219 83.3588 528.219 70.0222C528.219 56.6856 531.197 44.7733 537.153 34.2853C543.239 23.6678 551.525 15.4458 562.013 9.6191C572.631 3.66296 584.414 0.684881 597.362 0.684881C612.641 0.684881 625.913 4.43984 637.177 11.9498C648.442 19.3302 656.211 29.7535 660.484 43.2195H629.214ZM767.03 112.168H713.036L704.102 138H675.552L724.301 2.23865H755.96L804.709 138H775.964L767.03 112.168ZM759.65 90.4156L740.033 33.7027L720.417 90.4156H759.65ZM850.122 116.441H894.794V138H822.931V2.43288H850.122V116.441ZM939.267 116.441H983.938V138H912.076V2.43288H939.267V116.441Z" fill="#0070BB"/>
</svg>
